<mxfile host="app.diagrams.net" modified="2023-05-23T01:21:44.668Z" agent="Mozilla/5.0 (Windows NT 10.0; Win64; x64) AppleWebKit/537.36 (KHTML, like Gecko) Chrome/113.0.0.0 Safari/537.36" etag="S2c-TQkRwA614qoS78r6" version="21.3.2" type="github" pages="2">
  <diagram name="EUV" id="unsoDiKJAIrA_aXtJPjU">
    <mxGraphModel dx="1434" dy="796" grid="0" gridSize="10" guides="1" tooltips="1" connect="1" arrows="1" fold="1" page="1" pageScale="1" pageWidth="1169" pageHeight="827" math="0" shadow="0">
      <root>
        <mxCell id="0" />
        <mxCell id="1" parent="0" />
        <mxCell id="gK9YAaRykW0F6o79TxDN-1" value="Q1" style="html=1;shape=mxgraph.infographic.ribbonSimple;notch1=20;notch2=20;fillColor=#588b8b;strokeColor=none;align=center;verticalAlign=middle;fontColor=#ffffff;fontSize=14;fontStyle=1;rounded=0;" vertex="1" parent="1">
          <mxGeometry x="201" y="60" width="180" height="40" as="geometry" />
        </mxCell>
        <mxCell id="gK9YAaRykW0F6o79TxDN-2" value="Q2" style="html=1;shape=mxgraph.infographic.ribbonSimple;notch1=20;notch2=20;fillColor=#588b8b;strokeColor=none;align=center;verticalAlign=middle;fontColor=#ffffff;fontSize=14;fontStyle=1;rounded=0;" vertex="1" parent="1">
          <mxGeometry x="362" y="60" width="168" height="40" as="geometry" />
        </mxCell>
        <mxCell id="gK9YAaRykW0F6o79TxDN-3" value="Q3" style="html=1;shape=mxgraph.infographic.ribbonSimple;notch1=20;notch2=20;fillColor=#588b8b;strokeColor=none;align=center;verticalAlign=middle;fontColor=#ffffff;fontSize=14;fontStyle=1;rounded=0;" vertex="1" parent="1">
          <mxGeometry x="511" y="60" width="170" height="40" as="geometry" />
        </mxCell>
        <mxCell id="gK9YAaRykW0F6o79TxDN-4" value="Q4" style="html=1;shape=mxgraph.infographic.ribbonSimple;notch1=20;notch2=20;fillColor=#588b8b;strokeColor=none;align=center;verticalAlign=middle;fontColor=#ffffff;fontSize=14;fontStyle=1;rounded=0;" vertex="1" parent="1">
          <mxGeometry x="662" y="60" width="170" height="40" as="geometry" />
        </mxCell>
        <mxCell id="gK9YAaRykW0F6o79TxDN-5" value="Q1" style="html=1;shape=mxgraph.infographic.ribbonSimple;notch1=20;notch2=20;fillColor=#f28f3b;strokeColor=none;align=center;verticalAlign=middle;fontColor=#ffffff;fontSize=14;fontStyle=1;rounded=0;" vertex="1" parent="1">
          <mxGeometry x="813" y="60" width="180" height="40" as="geometry" />
        </mxCell>
        <mxCell id="gK9YAaRykW0F6o79TxDN-6" value="Q2" style="html=1;shape=mxgraph.infographic.ribbonSimple;notch1=20;notch2=20;fillColor=#f28f3b;strokeColor=none;align=center;verticalAlign=middle;fontColor=#ffffff;fontSize=14;fontStyle=1;rounded=0;" vertex="1" parent="1">
          <mxGeometry x="974" y="60" width="170" height="40" as="geometry" />
        </mxCell>
        <mxCell id="gK9YAaRykW0F6o79TxDN-7" value="" style="endArrow=none;html=1;strokeColor=#588b8b;strokeWidth=2;movable=1;resizable=1;rotatable=1;deletable=1;editable=1;connectable=1;" edge="1" parent="1" source="gK9YAaRykW0F6o79TxDN-73">
          <mxGeometry width="50" height="50" relative="1" as="geometry">
            <mxPoint x="40" y="187" as="sourcePoint" />
            <mxPoint x="1120" y="187" as="targetPoint" />
          </mxGeometry>
        </mxCell>
        <mxCell id="gK9YAaRykW0F6o79TxDN-8" value="" style="endArrow=none;html=1;strokeColor=#588b8b;strokeWidth=2;" edge="1" parent="1">
          <mxGeometry width="50" height="50" relative="1" as="geometry">
            <mxPoint x="40" y="283" as="sourcePoint" />
            <mxPoint x="1120" y="283" as="targetPoint" />
          </mxGeometry>
        </mxCell>
        <mxCell id="gK9YAaRykW0F6o79TxDN-9" value="" style="endArrow=none;html=1;strokeColor=#588b8b;strokeWidth=2;" edge="1" parent="1">
          <mxGeometry width="50" height="50" relative="1" as="geometry">
            <mxPoint x="848" y="361.2479871175524" as="sourcePoint" />
            <mxPoint x="1120" y="363" as="targetPoint" />
          </mxGeometry>
        </mxCell>
        <mxCell id="gK9YAaRykW0F6o79TxDN-10" value="" style="endArrow=none;dashed=1;html=1;strokeColor=#588b8b;strokeWidth=1;" edge="1" parent="1">
          <mxGeometry width="50" height="50" relative="1" as="geometry">
            <mxPoint x="200" y="696" as="sourcePoint" />
            <mxPoint x="200" y="119" as="targetPoint" />
          </mxGeometry>
        </mxCell>
        <mxCell id="gK9YAaRykW0F6o79TxDN-11" value="Product" style="html=1;shape=mxgraph.infographic.ribbonSimple;notch1=20;notch2=20;fillColor=#f28f3b;strokeColor=none;align=center;verticalAlign=middle;fontColor=#ffffff;fontSize=14;fontStyle=1;rounded=0;" vertex="1" parent="1">
          <mxGeometry x="34" y="60" width="186" height="40" as="geometry" />
        </mxCell>
        <mxCell id="gK9YAaRykW0F6o79TxDN-12" value="EUV Software Roadmap" style="text;html=1;strokeColor=none;fillColor=none;align=center;verticalAlign=middle;whiteSpace=wrap;rounded=0;fontSize=17;fontStyle=1" vertex="1" parent="1">
          <mxGeometry x="501" y="6" width="210" height="30" as="geometry" />
        </mxCell>
        <mxCell id="gK9YAaRykW0F6o79TxDN-13" value="Gen2&amp;nbsp;" style="text;html=1;strokeColor=none;fillColor=none;align=center;verticalAlign=middle;whiteSpace=wrap;rounded=0;fontSize=15;" vertex="1" parent="1">
          <mxGeometry x="86" y="137" width="60" height="30" as="geometry" />
        </mxCell>
        <mxCell id="gK9YAaRykW0F6o79TxDN-14" value="Gen2&amp;nbsp; Plus" style="text;html=1;strokeColor=none;fillColor=none;align=center;verticalAlign=middle;whiteSpace=wrap;rounded=0;fontSize=15;fontFamily=Helvetica;" vertex="1" parent="1">
          <mxGeometry x="77" y="193" width="79" height="22" as="geometry" />
        </mxCell>
        <mxCell id="gK9YAaRykW0F6o79TxDN-15" value="Gen3" style="text;html=1;strokeColor=none;fillColor=none;align=center;verticalAlign=middle;whiteSpace=wrap;rounded=0;fontSize=15;" vertex="1" parent="1">
          <mxGeometry x="77" y="309" width="76" height="30" as="geometry" />
        </mxCell>
        <mxCell id="gK9YAaRykW0F6o79TxDN-16" value="Gen3 Plus" style="text;html=1;strokeColor=none;fillColor=none;align=center;verticalAlign=middle;whiteSpace=wrap;rounded=0;fontSize=15;" vertex="1" parent="1">
          <mxGeometry x="66" y="363" width="100" height="30" as="geometry" />
        </mxCell>
        <mxCell id="gK9YAaRykW0F6o79TxDN-17" value="" style="endArrow=none;html=1;strokeColor=#588b8b;strokeWidth=2;" edge="1" parent="1">
          <mxGeometry width="50" height="50" relative="1" as="geometry">
            <mxPoint x="40" y="443" as="sourcePoint" />
            <mxPoint x="1120" y="443" as="targetPoint" />
          </mxGeometry>
        </mxCell>
        <mxCell id="gK9YAaRykW0F6o79TxDN-18" value="" style="endArrow=none;html=1;strokeColor=#588b8b;strokeWidth=2;" edge="1" parent="1">
          <mxGeometry width="50" height="50" relative="1" as="geometry">
            <mxPoint x="40" y="521" as="sourcePoint" />
            <mxPoint x="1120" y="521" as="targetPoint" />
          </mxGeometry>
        </mxCell>
        <mxCell id="gK9YAaRykW0F6o79TxDN-19" value="Gen4" style="text;html=1;strokeColor=none;fillColor=none;align=center;verticalAlign=middle;whiteSpace=wrap;rounded=0;fontSize=15;" vertex="1" parent="1">
          <mxGeometry x="73.4" y="534.4" width="100" height="30" as="geometry" />
        </mxCell>
        <mxCell id="gK9YAaRykW0F6o79TxDN-20" value="" style="endArrow=none;dashed=1;html=1;strokeColor=#588b8b;strokeWidth=1;" edge="1" parent="1">
          <mxGeometry width="50" height="50" relative="1" as="geometry">
            <mxPoint x="360" y="696" as="sourcePoint" />
            <mxPoint x="360" y="119" as="targetPoint" />
          </mxGeometry>
        </mxCell>
        <mxCell id="gK9YAaRykW0F6o79TxDN-21" value="" style="endArrow=none;dashed=1;html=1;strokeColor=#588b8b;strokeWidth=1;" edge="1" parent="1">
          <mxGeometry width="50" height="50" relative="1" as="geometry">
            <mxPoint x="511" y="696" as="sourcePoint" />
            <mxPoint x="511" y="119" as="targetPoint" />
          </mxGeometry>
        </mxCell>
        <mxCell id="gK9YAaRykW0F6o79TxDN-22" value="" style="endArrow=none;dashed=1;html=1;strokeColor=#10739E;strokeWidth=1;" edge="1" parent="1">
          <mxGeometry width="50" height="50" relative="1" as="geometry">
            <mxPoint x="662" y="697.6" as="sourcePoint" />
            <mxPoint x="663" y="117.6" as="targetPoint" />
          </mxGeometry>
        </mxCell>
        <mxCell id="gK9YAaRykW0F6o79TxDN-23" value="" style="endArrow=none;dashed=1;html=1;strokeColor=#588b8b;strokeWidth=1;" edge="1" parent="1">
          <mxGeometry width="50" height="50" relative="1" as="geometry">
            <mxPoint x="815" y="697.6" as="sourcePoint" />
            <mxPoint x="815" y="118.1" as="targetPoint" />
          </mxGeometry>
        </mxCell>
        <mxCell id="gK9YAaRykW0F6o79TxDN-24" value="" style="endArrow=none;dashed=1;html=1;strokeColor=#588b8b;strokeWidth=1;" edge="1" parent="1">
          <mxGeometry width="50" height="50" relative="1" as="geometry">
            <mxPoint x="977" y="697" as="sourcePoint" />
            <mxPoint x="978" y="117" as="targetPoint" />
          </mxGeometry>
        </mxCell>
        <mxCell id="gK9YAaRykW0F6o79TxDN-25" value="G5" style="rounded=1;whiteSpace=wrap;html=1;arcSize=50;strokeColor=none;strokeWidth=1;fillColor=#c8553d;fontColor=#FFFFFF;whiteSpace=wrap;align=center;verticalAlign=middle;spacingLeft=0;fontStyle=1;fontSize=9;spacing=10;fontFamily=Verdana;" vertex="1" parent="1">
          <mxGeometry x="692" y="189" width="29" height="17" as="geometry" />
        </mxCell>
        <mxCell id="gK9YAaRykW0F6o79TxDN-28" value="H2D HP(1000slm)&amp;nbsp;" style="text;html=1;strokeColor=none;fillColor=none;align=center;verticalAlign=middle;whiteSpace=wrap;rounded=0;fontSize=15;" vertex="1" parent="1">
          <mxGeometry x="54.9" y="445.61" width="137" height="25" as="geometry" />
        </mxCell>
        <mxCell id="gK9YAaRykW0F6o79TxDN-29" value="" style="endArrow=none;html=1;strokeColor=#588b8b;strokeWidth=2;" edge="1" parent="1">
          <mxGeometry width="50" height="50" relative="1" as="geometry">
            <mxPoint x="40" y="611" as="sourcePoint" />
            <mxPoint x="1120" y="611" as="targetPoint" />
          </mxGeometry>
        </mxCell>
        <mxCell id="gK9YAaRykW0F6o79TxDN-32" value="" style="endArrow=none;html=1;strokeColor=#588b8b;strokeWidth=2;" edge="1" parent="1">
          <mxGeometry width="50" height="50" relative="1" as="geometry">
            <mxPoint x="45" y="698.6" as="sourcePoint" />
            <mxPoint x="1125" y="698.6" as="targetPoint" />
          </mxGeometry>
        </mxCell>
        <mxCell id="gK9YAaRykW0F6o79TxDN-33" value="Halo" style="text;html=1;strokeColor=none;fillColor=none;align=center;verticalAlign=middle;whiteSpace=wrap;rounded=0;fontSize=15;" vertex="1" parent="1">
          <mxGeometry x="70" y="613" width="100" height="30" as="geometry" />
        </mxCell>
        <mxCell id="gK9YAaRykW0F6o79TxDN-34" value="3.6.X" style="html=1;shadow=0;dashed=0;shape=mxgraph.bootstrap.rrect;rSize=5;strokeColor=none;strokeWidth=1;fillColor=#F28f3b;fontColor=#FFFFFF;whiteSpace=wrap;align=center;verticalAlign=middle;spacingLeft=0;fontStyle=0;fontSize=10;spacing=5;fontFamily=Verdana;labelBackgroundColor=none;" vertex="1" parent="1">
          <mxGeometry x="468" y="640" width="40" height="16" as="geometry" />
        </mxCell>
        <mxCell id="gK9YAaRykW0F6o79TxDN-35" value="&lt;br&gt;NOW" style="shape=singleArrow;direction=south;whiteSpace=wrap;html=1;labelBackgroundColor=none;strokeColor=none;fontFamily=Helvetica;fontSize=8;fontColor=#FFFFFF;fillColor=#c8553d;arrowWidth=0.4911463187325298;arrowSize=0.49521072796935545;" vertex="1" parent="1">
          <mxGeometry x="344" y="18" width="37" height="42" as="geometry" />
        </mxCell>
        <mxCell id="gK9YAaRykW0F6o79TxDN-36" value="2023" style="rounded=1;whiteSpace=wrap;html=1;arcSize=50;strokeColor=none;strokeWidth=1;fillColor=#1CA5B8;fontColor=#ffffff;whiteSpace=wrap;align=left;verticalAlign=middle;spacingLeft=0;fontStyle=1;fontSize=10;spacing=10;labelBackgroundColor=none;fontFamily=Helvetica;" vertex="1" parent="1">
          <mxGeometry x="223" y="70" width="45" height="20" as="geometry" />
        </mxCell>
        <mxCell id="gK9YAaRykW0F6o79TxDN-37" value="2024" style="rounded=1;whiteSpace=wrap;html=1;arcSize=50;strokeColor=none;strokeWidth=1;fillColor=#FF9742;fontColor=#ffffff;whiteSpace=wrap;align=left;verticalAlign=middle;spacingLeft=0;fontStyle=1;fontSize=10;spacing=10;labelBackgroundColor=none;fontFamily=Helvetica;" vertex="1" parent="1">
          <mxGeometry x="836" y="70" width="45" height="20" as="geometry" />
        </mxCell>
        <mxCell id="gK9YAaRykW0F6o79TxDN-38" style="edgeStyle=orthogonalEdgeStyle;curved=1;orthogonalLoop=1;jettySize=auto;html=1;entryX=0.499;entryY=0.056;entryDx=0;entryDy=0;entryPerimeter=0;strokeColor=#588b8b;strokeWidth=1;fontFamily=Helvetica;fontSize=8;fontColor=#FFFFFF;endArrow=none;endFill=0;" edge="1" parent="1" source="gK9YAaRykW0F6o79TxDN-39" target="gK9YAaRykW0F6o79TxDN-40">
          <mxGeometry relative="1" as="geometry">
            <Array as="points">
              <mxPoint x="589.99" y="629" />
              <mxPoint x="589.99" y="629" />
            </Array>
          </mxGeometry>
        </mxCell>
        <mxCell id="gK9YAaRykW0F6o79TxDN-39" value="" style="ellipse;shape=doubleEllipse;whiteSpace=wrap;html=1;aspect=fixed;labelBackgroundColor=none;strokeColor=#FFFFFF;fontFamily=Helvetica;fontSize=10;fontColor=#FFFFFF;fillColor=#FF9742;" vertex="1" parent="1">
          <mxGeometry x="584.49" y="617" width="11" height="11" as="geometry" />
        </mxCell>
        <mxCell id="gK9YAaRykW0F6o79TxDN-40" value="Commissiong" style="rounded=1;whiteSpace=wrap;html=1;labelBackgroundColor=none;strokeColor=none;fontFamily=Helvetica;fontSize=7;fontColor=#FFFFFF;fillColor=#FF9742;" vertex="1" parent="1">
          <mxGeometry x="566.6900000000002" y="640" width="46.63" height="16" as="geometry" />
        </mxCell>
        <mxCell id="gK9YAaRykW0F6o79TxDN-41" value="Jan" style="rounded=1;whiteSpace=wrap;html=1;labelBackgroundColor=none;strokeColor=none;fontFamily=Helvetica;fontSize=8;fontColor=#000000;fillColor=none;fontStyle=5" vertex="1" parent="1">
          <mxGeometry x="199" y="100" width="52" height="17" as="geometry" />
        </mxCell>
        <mxCell id="gK9YAaRykW0F6o79TxDN-42" value="Feb" style="rounded=1;whiteSpace=wrap;html=1;labelBackgroundColor=none;strokeColor=none;fontFamily=Helvetica;fontSize=8;fontColor=#000000;fillColor=none;fontStyle=5" vertex="1" parent="1">
          <mxGeometry x="251" y="100" width="58" height="17" as="geometry" />
        </mxCell>
        <mxCell id="gK9YAaRykW0F6o79TxDN-43" value="Mar" style="rounded=1;whiteSpace=wrap;html=1;labelBackgroundColor=none;strokeColor=none;fontFamily=Helvetica;fontSize=8;fontColor=#000000;fillColor=none;fontStyle=5" vertex="1" parent="1">
          <mxGeometry x="309" y="100" width="54" height="17" as="geometry" />
        </mxCell>
        <mxCell id="gK9YAaRykW0F6o79TxDN-44" value="Apr" style="rounded=1;whiteSpace=wrap;html=1;labelBackgroundColor=none;strokeColor=none;fontFamily=Helvetica;fontSize=8;fontColor=#000000;fillColor=none;fontStyle=5" vertex="1" parent="1">
          <mxGeometry x="352" y="100" width="52" height="17" as="geometry" />
        </mxCell>
        <mxCell id="gK9YAaRykW0F6o79TxDN-45" value="May" style="rounded=1;whiteSpace=wrap;html=1;labelBackgroundColor=none;strokeColor=none;fontFamily=Helvetica;fontSize=8;fontColor=#000000;fillColor=none;fontStyle=5" vertex="1" parent="1">
          <mxGeometry x="404" y="100" width="58" height="17" as="geometry" />
        </mxCell>
        <mxCell id="gK9YAaRykW0F6o79TxDN-46" value="Jun" style="rounded=1;whiteSpace=wrap;html=1;labelBackgroundColor=none;strokeColor=none;fontFamily=Helvetica;fontSize=8;fontColor=#000000;fillColor=none;fontStyle=5" vertex="1" parent="1">
          <mxGeometry x="462" y="100" width="54" height="17" as="geometry" />
        </mxCell>
        <mxCell id="gK9YAaRykW0F6o79TxDN-47" value="Jul" style="rounded=1;whiteSpace=wrap;html=1;labelBackgroundColor=none;strokeColor=none;fontFamily=Helvetica;fontSize=8;fontColor=#000000;fillColor=none;fontStyle=5" vertex="1" parent="1">
          <mxGeometry x="509" y="100" width="52" height="17" as="geometry" />
        </mxCell>
        <mxCell id="gK9YAaRykW0F6o79TxDN-48" value="Aug" style="rounded=1;whiteSpace=wrap;html=1;labelBackgroundColor=none;strokeColor=none;fontFamily=Helvetica;fontSize=8;fontColor=#000000;fillColor=none;fontStyle=5" vertex="1" parent="1">
          <mxGeometry x="561" y="100" width="58" height="17" as="geometry" />
        </mxCell>
        <mxCell id="gK9YAaRykW0F6o79TxDN-49" value="Sep" style="rounded=1;whiteSpace=wrap;html=1;labelBackgroundColor=none;strokeColor=none;fontFamily=Helvetica;fontSize=8;fontColor=#000000;fillColor=none;fontStyle=5" vertex="1" parent="1">
          <mxGeometry x="614" y="100" width="54" height="17" as="geometry" />
        </mxCell>
        <mxCell id="gK9YAaRykW0F6o79TxDN-50" value="Dec" style="rounded=1;whiteSpace=wrap;html=1;labelBackgroundColor=none;strokeColor=none;fontFamily=Helvetica;fontSize=8;fontColor=#000000;fillColor=none;fontStyle=5" vertex="1" parent="1">
          <mxGeometry x="771" y="100" width="54" height="17" as="geometry" />
        </mxCell>
        <mxCell id="gK9YAaRykW0F6o79TxDN-51" value="Oct" style="rounded=1;whiteSpace=wrap;html=1;labelBackgroundColor=none;strokeColor=none;fontFamily=Helvetica;fontSize=8;fontColor=#000000;fillColor=none;fontStyle=5" vertex="1" parent="1">
          <mxGeometry x="661" y="100" width="52" height="17" as="geometry" />
        </mxCell>
        <mxCell id="gK9YAaRykW0F6o79TxDN-52" value="Nov" style="rounded=1;whiteSpace=wrap;html=1;labelBackgroundColor=none;strokeColor=none;fontFamily=Helvetica;fontSize=8;fontColor=#000000;fillColor=none;fontStyle=5" vertex="1" parent="1">
          <mxGeometry x="713" y="100" width="58" height="17" as="geometry" />
        </mxCell>
        <mxCell id="gK9YAaRykW0F6o79TxDN-53" value="Jan" style="rounded=1;whiteSpace=wrap;html=1;labelBackgroundColor=none;strokeColor=none;fontFamily=Helvetica;fontSize=8;fontColor=#000000;fillColor=none;fontStyle=5" vertex="1" parent="1">
          <mxGeometry x="813" y="100" width="52" height="17" as="geometry" />
        </mxCell>
        <mxCell id="gK9YAaRykW0F6o79TxDN-54" value="Feb" style="rounded=1;whiteSpace=wrap;html=1;labelBackgroundColor=none;strokeColor=none;fontFamily=Helvetica;fontSize=8;fontColor=#000000;fillColor=none;fontStyle=5" vertex="1" parent="1">
          <mxGeometry x="865" y="100" width="58" height="17" as="geometry" />
        </mxCell>
        <mxCell id="gK9YAaRykW0F6o79TxDN-55" value="Mar" style="rounded=1;whiteSpace=wrap;html=1;labelBackgroundColor=none;strokeColor=none;fontFamily=Helvetica;fontSize=8;fontColor=#000000;fillColor=none;fontStyle=5" vertex="1" parent="1">
          <mxGeometry x="923" y="100" width="54" height="17" as="geometry" />
        </mxCell>
        <mxCell id="gK9YAaRykW0F6o79TxDN-56" value="Apr" style="rounded=1;whiteSpace=wrap;html=1;labelBackgroundColor=none;strokeColor=none;fontFamily=Helvetica;fontSize=8;fontColor=#000000;fillColor=none;fontStyle=5" vertex="1" parent="1">
          <mxGeometry x="967" y="100" width="52" height="17" as="geometry" />
        </mxCell>
        <mxCell id="gK9YAaRykW0F6o79TxDN-57" value="May" style="rounded=1;whiteSpace=wrap;html=1;labelBackgroundColor=none;strokeColor=none;fontFamily=Helvetica;fontSize=8;fontColor=#000000;fillColor=none;fontStyle=5" vertex="1" parent="1">
          <mxGeometry x="1019" y="100" width="58" height="17" as="geometry" />
        </mxCell>
        <mxCell id="gK9YAaRykW0F6o79TxDN-58" value="Jun" style="rounded=1;whiteSpace=wrap;html=1;labelBackgroundColor=none;strokeColor=none;fontFamily=Helvetica;fontSize=8;fontColor=#000000;fillColor=none;fontStyle=5" vertex="1" parent="1">
          <mxGeometry x="1077" y="100" width="54" height="17" as="geometry" />
        </mxCell>
        <mxCell id="gK9YAaRykW0F6o79TxDN-59" value="Verification" style="html=1;shape=mxgraph.infographic.ribbonSimple;notch1=10.29;notch2=13.57;fillColor=#588b8b;strokeColor=none;align=center;verticalAlign=middle;fontColor=#ffffff;fontSize=9;fontStyle=0;rounded=0;" vertex="1" parent="1">
          <mxGeometry x="510" y="614" width="70" height="17" as="geometry" />
        </mxCell>
        <mxCell id="gK9YAaRykW0F6o79TxDN-60" value="G1" style="rounded=1;whiteSpace=wrap;html=1;arcSize=50;strokeColor=none;strokeWidth=1;fillColor=#c8553d;fontColor=#FFFFFF;whiteSpace=wrap;align=center;verticalAlign=middle;spacingLeft=0;fontStyle=1;fontSize=9;spacing=10;fontFamily=Verdana;" vertex="1" parent="1">
          <mxGeometry x="364.5" y="525" width="27.5" height="17" as="geometry" />
        </mxCell>
        <mxCell id="gK9YAaRykW0F6o79TxDN-61" value="G2" style="rounded=1;whiteSpace=wrap;html=1;arcSize=50;strokeColor=none;strokeWidth=1;fillColor=#c8553d;fontColor=#FFFFFF;whiteSpace=wrap;align=center;verticalAlign=middle;spacingLeft=0;fontStyle=1;fontSize=9;spacing=10;fontFamily=Verdana;" vertex="1" parent="1">
          <mxGeometry x="517.25" y="525" width="27.5" height="17" as="geometry" />
        </mxCell>
        <mxCell id="gK9YAaRykW0F6o79TxDN-62" value="G3" style="rounded=1;whiteSpace=wrap;html=1;arcSize=50;strokeColor=none;strokeWidth=1;fillColor=#c8553d;fontColor=#FFFFFF;whiteSpace=wrap;align=center;verticalAlign=middle;spacingLeft=0;fontStyle=1;fontSize=9;spacing=10;fontFamily=Verdana;" vertex="1" parent="1">
          <mxGeometry x="819" y="523.9" width="27.5" height="17" as="geometry" />
        </mxCell>
        <mxCell id="gK9YAaRykW0F6o79TxDN-63" value="G6" style="rounded=1;whiteSpace=wrap;html=1;arcSize=50;strokeColor=none;strokeWidth=1;fillColor=#c8553d;fontColor=#FFFFFF;whiteSpace=wrap;align=center;verticalAlign=middle;spacingLeft=0;fontStyle=1;fontSize=9;spacing=10;fontFamily=Verdana;" vertex="1" parent="1">
          <mxGeometry x="295" y="289" width="29" height="17" as="geometry" />
        </mxCell>
        <mxCell id="gK9YAaRykW0F6o79TxDN-64" value="3.6.8" style="html=1;shadow=0;dashed=0;shape=mxgraph.bootstrap.rrect;rSize=5;strokeColor=none;strokeWidth=1;fillColor=#F28f3b;fontColor=#FFFFFF;whiteSpace=wrap;align=center;verticalAlign=middle;spacingLeft=0;fontStyle=0;fontSize=10;spacing=5;fontFamily=Verdana;labelBackgroundColor=none;" vertex="1" parent="1">
          <mxGeometry x="40" y="717" width="40" height="20" as="geometry" />
        </mxCell>
        <mxCell id="gK9YAaRykW0F6o79TxDN-65" value="3.7.0" style="html=1;shadow=0;dashed=0;shape=mxgraph.bootstrap.rrect;rSize=5;strokeColor=none;strokeWidth=1;fillColor=#F28f3b;fontColor=#FFFFFF;whiteSpace=wrap;align=center;verticalAlign=middle;spacingLeft=0;fontStyle=0;fontSize=10;spacing=5;fontFamily=Verdana;labelBackgroundColor=none;" vertex="1" parent="1">
          <mxGeometry x="292" y="717" width="40" height="20" as="geometry" />
        </mxCell>
        <mxCell id="gK9YAaRykW0F6o79TxDN-66" value="&lt;ul&gt;&lt;li&gt;All Variants&amp;nbsp;&lt;/li&gt;&lt;/ul&gt;" style="text;strokeColor=none;fillColor=none;html=1;whiteSpace=wrap;verticalAlign=middle;overflow=hidden;fontSize=8;fontFamily=Helvetica;fontColor=#000000;labelPosition=center;verticalLabelPosition=middle;align=left;" vertex="1" parent="1">
          <mxGeometry x="270" y="730" width="211" height="40" as="geometry" />
        </mxCell>
        <mxCell id="gK9YAaRykW0F6o79TxDN-67" value="Development" style="html=1;shape=mxgraph.infographic.ribbonSimple;notch1=10.29;notch2=13.57;fillColor=#588b8b;strokeColor=none;align=center;verticalAlign=middle;fontColor=#ffffff;fontSize=9;fontStyle=0;rounded=0;" vertex="1" parent="1">
          <mxGeometry x="329" y="614" width="152" height="17" as="geometry" />
        </mxCell>
        <mxCell id="gK9YAaRykW0F6o79TxDN-68" value="G5-TDB" style="rounded=1;whiteSpace=wrap;html=1;arcSize=50;strokeColor=none;strokeWidth=1;fillColor=#c8553d;fontColor=#FFFFFF;whiteSpace=wrap;align=center;verticalAlign=middle;spacingLeft=0;fontStyle=1;fontSize=9;spacing=10;fontFamily=Verdana;" vertex="1" parent="1">
          <mxGeometry x="688" y="373" width="83" height="17" as="geometry" />
        </mxCell>
        <mxCell id="gK9YAaRykW0F6o79TxDN-69" value="G3" style="rounded=1;whiteSpace=wrap;html=1;arcSize=50;strokeColor=none;strokeWidth=1;fillColor=#c8553d;fontColor=#FFFFFF;whiteSpace=wrap;align=center;verticalAlign=middle;spacingLeft=0;fontStyle=1;fontSize=9;spacing=10;fontFamily=Verdana;" vertex="1" parent="1">
          <mxGeometry x="455" y="445.61" width="29" height="17" as="geometry" />
        </mxCell>
        <mxCell id="gK9YAaRykW0F6o79TxDN-70" value="G5" style="rounded=1;whiteSpace=wrap;html=1;arcSize=50;strokeColor=none;strokeWidth=1;fillColor=#c8553d;fontColor=#FFFFFF;whiteSpace=wrap;align=center;verticalAlign=middle;spacingLeft=0;fontStyle=1;fontSize=9;spacing=10;fontFamily=Verdana;" vertex="1" parent="1">
          <mxGeometry x="760" y="445.61" width="29" height="17" as="geometry" />
        </mxCell>
        <mxCell id="gK9YAaRykW0F6o79TxDN-71" value="Knowledge Gap" style="html=1;shadow=0;dashed=0;shape=mxgraph.bootstrap.rrect;rSize=5;strokeColor=none;strokeWidth=1;fillColor=#F28f3b;fontColor=#FFFFFF;whiteSpace=wrap;align=center;verticalAlign=middle;spacingLeft=0;fontStyle=0;fontSize=10;spacing=5;fontFamily=Verdana;labelBackgroundColor=none;" vertex="1" parent="1">
          <mxGeometry x="244" y="540.9" width="113" height="17" as="geometry" />
        </mxCell>
        <mxCell id="gK9YAaRykW0F6o79TxDN-72" value="" style="endArrow=none;html=1;strokeColor=#588b8b;strokeWidth=2;movable=1;resizable=1;rotatable=1;deletable=1;editable=1;connectable=1;" edge="1" parent="1" target="gK9YAaRykW0F6o79TxDN-73">
          <mxGeometry width="50" height="50" relative="1" as="geometry">
            <mxPoint x="40" y="187" as="sourcePoint" />
            <mxPoint x="1120" y="187" as="targetPoint" />
          </mxGeometry>
        </mxCell>
        <mxCell id="gK9YAaRykW0F6o79TxDN-73" value="3.7.0" style="html=1;shadow=0;dashed=0;shape=mxgraph.bootstrap.rrect;rSize=5;strokeColor=none;strokeWidth=1;fillColor=#F28f3b;fontColor=#FFFFFF;whiteSpace=wrap;align=center;verticalAlign=middle;spacingLeft=0;fontStyle=0;fontSize=10;spacing=5;fontFamily=Verdana;labelBackgroundColor=none;" vertex="1" parent="1">
          <mxGeometry x="622" y="176.5" width="40" height="20" as="geometry" />
        </mxCell>
        <mxCell id="gK9YAaRykW0F6o79TxDN-74" value="3.6.8" style="html=1;shadow=0;dashed=0;shape=mxgraph.bootstrap.rrect;rSize=5;strokeColor=none;strokeWidth=1;fillColor=#F28f3b;fontColor=#FFFFFF;whiteSpace=wrap;align=center;verticalAlign=middle;spacingLeft=0;fontStyle=0;fontSize=10;spacing=5;fontFamily=Verdana;labelBackgroundColor=none;" vertex="1" parent="1">
          <mxGeometry x="471" y="175" width="40" height="20" as="geometry" />
        </mxCell>
        <mxCell id="gK9YAaRykW0F6o79TxDN-75" value="Development" style="html=1;shape=mxgraph.infographic.ribbonSimple;notch1=10.29;notch2=13.57;fillColor=#588b8b;strokeColor=none;align=center;verticalAlign=middle;fontColor=#ffffff;fontSize=9;fontStyle=0;rounded=0;" vertex="1" parent="1">
          <mxGeometry x="387" y="178" width="84" height="17" as="geometry" />
        </mxCell>
        <mxCell id="gK9YAaRykW0F6o79TxDN-76" value="4.2.3" style="html=1;shadow=0;dashed=0;shape=mxgraph.bootstrap.rrect;rSize=5;strokeColor=none;strokeWidth=1;fillColor=#F28f3b;fontColor=#FFFFFF;whiteSpace=wrap;align=center;verticalAlign=middle;spacingLeft=0;fontStyle=0;fontSize=10;spacing=5;fontFamily=Verdana;labelBackgroundColor=none;" vertex="1" parent="1">
          <mxGeometry x="842" y="717" width="37" height="19" as="geometry" />
        </mxCell>
        <mxCell id="gK9YAaRykW0F6o79TxDN-77" value="&lt;ul&gt;&lt;li&gt;TSMC R&amp;amp;D (HRS + H2D-TX2)&lt;/li&gt;&lt;/ul&gt;" style="text;strokeColor=none;fillColor=none;html=1;whiteSpace=wrap;verticalAlign=middle;overflow=hidden;fontSize=8;fontFamily=Helvetica;fontColor=#000000;labelPosition=center;verticalLabelPosition=middle;align=left;" vertex="1" parent="1">
          <mxGeometry x="819" y="729" width="241" height="40" as="geometry" />
        </mxCell>
        <mxCell id="gK9YAaRykW0F6o79TxDN-78" value="" style="endArrow=none;html=1;strokeColor=#588b8b;strokeWidth=2;" edge="1" parent="1" source="gK9YAaRykW0F6o79TxDN-82" target="gK9YAaRykW0F6o79TxDN-79">
          <mxGeometry width="50" height="50" relative="1" as="geometry">
            <mxPoint x="40" y="363" as="sourcePoint" />
            <mxPoint x="1120" y="363" as="targetPoint" />
          </mxGeometry>
        </mxCell>
        <mxCell id="gK9YAaRykW0F6o79TxDN-79" value="4.2.3 - R&amp;amp;D" style="html=1;shadow=0;dashed=0;shape=mxgraph.bootstrap.rrect;rSize=5;strokeColor=none;strokeWidth=1;fillColor=#F28f3b;fontColor=#FFFFFF;whiteSpace=wrap;align=center;verticalAlign=middle;spacingLeft=0;fontStyle=0;fontSize=10;spacing=5;fontFamily=Verdana;labelBackgroundColor=none;" vertex="1" parent="1">
          <mxGeometry x="662" y="351" width="77" height="20" as="geometry" />
        </mxCell>
        <mxCell id="gK9YAaRykW0F6o79TxDN-80" value="" style="endArrow=none;html=1;strokeColor=#588b8b;strokeWidth=2;" edge="1" parent="1" source="gK9YAaRykW0F6o79TxDN-79">
          <mxGeometry width="50" height="50" relative="1" as="geometry">
            <mxPoint x="739" y="361" as="sourcePoint" />
            <mxPoint x="771" y="361" as="targetPoint" />
          </mxGeometry>
        </mxCell>
        <mxCell id="gK9YAaRykW0F6o79TxDN-81" value="" style="endArrow=none;html=1;strokeColor=#588b8b;strokeWidth=2;" edge="1" parent="1" target="gK9YAaRykW0F6o79TxDN-82">
          <mxGeometry width="50" height="50" relative="1" as="geometry">
            <mxPoint x="40" y="363" as="sourcePoint" />
            <mxPoint x="662" y="361" as="targetPoint" />
          </mxGeometry>
        </mxCell>
        <mxCell id="gK9YAaRykW0F6o79TxDN-82" value="Development" style="html=1;shape=mxgraph.infographic.ribbonSimple;notch1=10.29;notch2=13.57;fillColor=#588b8b;strokeColor=none;align=center;verticalAlign=middle;fontColor=#ffffff;fontSize=9;fontStyle=0;rounded=0;" vertex="1" parent="1">
          <mxGeometry x="560" y="353" width="102" height="17" as="geometry" />
        </mxCell>
        <mxCell id="gK9YAaRykW0F6o79TxDN-83" value="4.2.3 - R&amp;amp;D" style="html=1;shadow=0;dashed=0;shape=mxgraph.bootstrap.rrect;rSize=5;strokeColor=none;strokeWidth=1;fillColor=#F28f3b;fontColor=#FFFFFF;whiteSpace=wrap;align=center;verticalAlign=middle;spacingLeft=0;fontStyle=0;fontSize=10;spacing=5;fontFamily=Verdana;labelBackgroundColor=none;" vertex="1" parent="1">
          <mxGeometry x="769.5" y="350" width="77" height="20" as="geometry" />
        </mxCell>
      </root>
    </mxGraphModel>
  </diagram>
  <diagram id="8qilkzNJSA9QrR4GBQ4Y" name="EUV Legacy">
    <mxGraphModel dx="1434" dy="796" grid="0" gridSize="10" guides="1" tooltips="1" connect="1" arrows="1" fold="1" page="1" pageScale="1" pageWidth="1169" pageHeight="827" math="0" shadow="0">
      <root>
        <mxCell id="0" />
        <mxCell id="1" parent="0" />
        <mxCell id="6glqWI0Emz2dQMMp6tWa-1" value="Q1" style="html=1;shape=mxgraph.infographic.ribbonSimple;notch1=20;notch2=20;fillColor=#588b8b;strokeColor=none;align=center;verticalAlign=middle;fontColor=#ffffff;fontSize=14;fontStyle=1;rounded=0;" vertex="1" parent="1">
          <mxGeometry x="201" y="60" width="180" height="40" as="geometry" />
        </mxCell>
        <mxCell id="6glqWI0Emz2dQMMp6tWa-2" value="Q2" style="html=1;shape=mxgraph.infographic.ribbonSimple;notch1=20;notch2=20;fillColor=#588b8b;strokeColor=none;align=center;verticalAlign=middle;fontColor=#ffffff;fontSize=14;fontStyle=1;rounded=0;" vertex="1" parent="1">
          <mxGeometry x="362" y="60" width="168" height="40" as="geometry" />
        </mxCell>
        <mxCell id="6glqWI0Emz2dQMMp6tWa-3" value="Q3" style="html=1;shape=mxgraph.infographic.ribbonSimple;notch1=20;notch2=20;fillColor=#588b8b;strokeColor=none;align=center;verticalAlign=middle;fontColor=#ffffff;fontSize=14;fontStyle=1;rounded=0;" vertex="1" parent="1">
          <mxGeometry x="511" y="60" width="170" height="40" as="geometry" />
        </mxCell>
        <mxCell id="6glqWI0Emz2dQMMp6tWa-4" value="Q4" style="html=1;shape=mxgraph.infographic.ribbonSimple;notch1=20;notch2=20;fillColor=#588b8b;strokeColor=none;align=center;verticalAlign=middle;fontColor=#ffffff;fontSize=14;fontStyle=1;rounded=0;" vertex="1" parent="1">
          <mxGeometry x="662" y="60" width="170" height="40" as="geometry" />
        </mxCell>
        <mxCell id="6glqWI0Emz2dQMMp6tWa-5" value="Q1" style="html=1;shape=mxgraph.infographic.ribbonSimple;notch1=20;notch2=20;fillColor=#f28f3b;strokeColor=none;align=center;verticalAlign=middle;fontColor=#ffffff;fontSize=14;fontStyle=1;rounded=0;" vertex="1" parent="1">
          <mxGeometry x="813" y="60" width="180" height="40" as="geometry" />
        </mxCell>
        <mxCell id="6glqWI0Emz2dQMMp6tWa-6" value="Q2" style="html=1;shape=mxgraph.infographic.ribbonSimple;notch1=20;notch2=20;fillColor=#f28f3b;strokeColor=none;align=center;verticalAlign=middle;fontColor=#ffffff;fontSize=14;fontStyle=1;rounded=0;" vertex="1" parent="1">
          <mxGeometry x="974" y="60" width="170" height="40" as="geometry" />
        </mxCell>
        <mxCell id="6glqWI0Emz2dQMMp6tWa-7" value="" style="endArrow=none;html=1;strokeColor=#588b8b;strokeWidth=2;movable=1;resizable=1;rotatable=1;deletable=1;editable=1;connectable=1;" edge="1" parent="1" source="6glqWI0Emz2dQMMp6tWa-70">
          <mxGeometry width="50" height="50" relative="1" as="geometry">
            <mxPoint x="40" y="187" as="sourcePoint" />
            <mxPoint x="1120" y="187" as="targetPoint" />
          </mxGeometry>
        </mxCell>
        <mxCell id="6glqWI0Emz2dQMMp6tWa-8" value="" style="endArrow=none;html=1;strokeColor=#588b8b;strokeWidth=2;" edge="1" parent="1">
          <mxGeometry width="50" height="50" relative="1" as="geometry">
            <mxPoint x="40" y="283" as="sourcePoint" />
            <mxPoint x="1120" y="283" as="targetPoint" />
          </mxGeometry>
        </mxCell>
        <mxCell id="6glqWI0Emz2dQMMp6tWa-9" value="" style="endArrow=none;html=1;strokeColor=#588b8b;strokeWidth=2;" edge="1" parent="1">
          <mxGeometry width="50" height="50" relative="1" as="geometry">
            <mxPoint x="848" y="361.2479871175524" as="sourcePoint" />
            <mxPoint x="1120" y="363" as="targetPoint" />
          </mxGeometry>
        </mxCell>
        <mxCell id="6glqWI0Emz2dQMMp6tWa-10" value="" style="endArrow=none;dashed=1;html=1;strokeColor=#588b8b;strokeWidth=1;" edge="1" parent="1">
          <mxGeometry width="50" height="50" relative="1" as="geometry">
            <mxPoint x="200" y="696" as="sourcePoint" />
            <mxPoint x="200" y="119" as="targetPoint" />
          </mxGeometry>
        </mxCell>
        <mxCell id="6glqWI0Emz2dQMMp6tWa-11" value="Product" style="html=1;shape=mxgraph.infographic.ribbonSimple;notch1=20;notch2=20;fillColor=#f28f3b;strokeColor=none;align=center;verticalAlign=middle;fontColor=#ffffff;fontSize=14;fontStyle=1;rounded=0;" vertex="1" parent="1">
          <mxGeometry x="34" y="60" width="186" height="40" as="geometry" />
        </mxCell>
        <mxCell id="6glqWI0Emz2dQMMp6tWa-12" value="EUV Software Roadmap" style="text;html=1;strokeColor=none;fillColor=none;align=center;verticalAlign=middle;whiteSpace=wrap;rounded=0;fontSize=17;fontStyle=1" vertex="1" parent="1">
          <mxGeometry x="501" y="6" width="210" height="30" as="geometry" />
        </mxCell>
        <mxCell id="6glqWI0Emz2dQMMp6tWa-13" value="Gen2&amp;nbsp;" style="text;html=1;strokeColor=none;fillColor=none;align=center;verticalAlign=middle;whiteSpace=wrap;rounded=0;fontSize=15;" vertex="1" parent="1">
          <mxGeometry x="86" y="137" width="60" height="30" as="geometry" />
        </mxCell>
        <mxCell id="6glqWI0Emz2dQMMp6tWa-14" value="Gen2&amp;nbsp; Plus" style="text;html=1;strokeColor=none;fillColor=none;align=center;verticalAlign=middle;whiteSpace=wrap;rounded=0;fontSize=15;fontFamily=Helvetica;" vertex="1" parent="1">
          <mxGeometry x="77" y="193" width="79" height="22" as="geometry" />
        </mxCell>
        <mxCell id="6glqWI0Emz2dQMMp6tWa-15" value="Gen3" style="text;html=1;strokeColor=none;fillColor=none;align=center;verticalAlign=middle;whiteSpace=wrap;rounded=0;fontSize=15;" vertex="1" parent="1">
          <mxGeometry x="77" y="309" width="76" height="30" as="geometry" />
        </mxCell>
        <mxCell id="6glqWI0Emz2dQMMp6tWa-16" value="Gen3 Plus" style="text;html=1;strokeColor=none;fillColor=none;align=center;verticalAlign=middle;whiteSpace=wrap;rounded=0;fontSize=15;" vertex="1" parent="1">
          <mxGeometry x="66" y="363" width="100" height="30" as="geometry" />
        </mxCell>
        <mxCell id="6glqWI0Emz2dQMMp6tWa-17" value="" style="endArrow=none;html=1;strokeColor=#588b8b;strokeWidth=2;" edge="1" parent="1">
          <mxGeometry width="50" height="50" relative="1" as="geometry">
            <mxPoint x="40" y="443" as="sourcePoint" />
            <mxPoint x="1120" y="443" as="targetPoint" />
          </mxGeometry>
        </mxCell>
        <mxCell id="6glqWI0Emz2dQMMp6tWa-18" value="" style="endArrow=none;html=1;strokeColor=#588b8b;strokeWidth=2;" edge="1" parent="1">
          <mxGeometry width="50" height="50" relative="1" as="geometry">
            <mxPoint x="40" y="521" as="sourcePoint" />
            <mxPoint x="1120" y="521" as="targetPoint" />
          </mxGeometry>
        </mxCell>
        <mxCell id="6glqWI0Emz2dQMMp6tWa-19" value="Gen4" style="text;html=1;strokeColor=none;fillColor=none;align=center;verticalAlign=middle;whiteSpace=wrap;rounded=0;fontSize=15;" vertex="1" parent="1">
          <mxGeometry x="73.4" y="534.4" width="100" height="30" as="geometry" />
        </mxCell>
        <mxCell id="6glqWI0Emz2dQMMp6tWa-20" value="" style="endArrow=none;dashed=1;html=1;strokeColor=#588b8b;strokeWidth=1;" edge="1" parent="1">
          <mxGeometry width="50" height="50" relative="1" as="geometry">
            <mxPoint x="360" y="696" as="sourcePoint" />
            <mxPoint x="360" y="119" as="targetPoint" />
          </mxGeometry>
        </mxCell>
        <mxCell id="6glqWI0Emz2dQMMp6tWa-21" value="" style="endArrow=none;dashed=1;html=1;strokeColor=#588b8b;strokeWidth=1;" edge="1" parent="1">
          <mxGeometry width="50" height="50" relative="1" as="geometry">
            <mxPoint x="511" y="696" as="sourcePoint" />
            <mxPoint x="511" y="119" as="targetPoint" />
          </mxGeometry>
        </mxCell>
        <mxCell id="6glqWI0Emz2dQMMp6tWa-22" value="" style="endArrow=none;dashed=1;html=1;strokeColor=#10739E;strokeWidth=1;" edge="1" parent="1">
          <mxGeometry width="50" height="50" relative="1" as="geometry">
            <mxPoint x="662" y="697.6" as="sourcePoint" />
            <mxPoint x="663" y="117.6" as="targetPoint" />
          </mxGeometry>
        </mxCell>
        <mxCell id="6glqWI0Emz2dQMMp6tWa-23" value="" style="endArrow=none;dashed=1;html=1;strokeColor=#588b8b;strokeWidth=1;" edge="1" parent="1">
          <mxGeometry width="50" height="50" relative="1" as="geometry">
            <mxPoint x="815" y="697.6" as="sourcePoint" />
            <mxPoint x="815" y="118.1" as="targetPoint" />
          </mxGeometry>
        </mxCell>
        <mxCell id="6glqWI0Emz2dQMMp6tWa-24" value="" style="endArrow=none;dashed=1;html=1;strokeColor=#588b8b;strokeWidth=1;" edge="1" parent="1">
          <mxGeometry width="50" height="50" relative="1" as="geometry">
            <mxPoint x="977" y="697" as="sourcePoint" />
            <mxPoint x="978" y="117" as="targetPoint" />
          </mxGeometry>
        </mxCell>
        <mxCell id="6glqWI0Emz2dQMMp6tWa-25" value="G5" style="rounded=1;whiteSpace=wrap;html=1;arcSize=50;strokeColor=none;strokeWidth=1;fillColor=#c8553d;fontColor=#FFFFFF;whiteSpace=wrap;align=center;verticalAlign=middle;spacingLeft=0;fontStyle=1;fontSize=9;spacing=10;fontFamily=Verdana;" vertex="1" parent="1">
          <mxGeometry x="692" y="189" width="29" height="17" as="geometry" />
        </mxCell>
        <mxCell id="6glqWI0Emz2dQMMp6tWa-26" value="H2D HP(1000slm)&amp;nbsp;" style="text;html=1;strokeColor=none;fillColor=none;align=center;verticalAlign=middle;whiteSpace=wrap;rounded=0;fontSize=15;" vertex="1" parent="1">
          <mxGeometry x="54.9" y="445.61" width="137" height="25" as="geometry" />
        </mxCell>
        <mxCell id="6glqWI0Emz2dQMMp6tWa-27" value="" style="endArrow=none;html=1;strokeColor=#588b8b;strokeWidth=2;" edge="1" parent="1">
          <mxGeometry width="50" height="50" relative="1" as="geometry">
            <mxPoint x="40" y="611" as="sourcePoint" />
            <mxPoint x="1120" y="611" as="targetPoint" />
          </mxGeometry>
        </mxCell>
        <mxCell id="6glqWI0Emz2dQMMp6tWa-28" value="" style="endArrow=none;html=1;strokeColor=#588b8b;strokeWidth=2;" edge="1" parent="1">
          <mxGeometry width="50" height="50" relative="1" as="geometry">
            <mxPoint x="45" y="698.6" as="sourcePoint" />
            <mxPoint x="1125" y="698.6" as="targetPoint" />
          </mxGeometry>
        </mxCell>
        <mxCell id="6glqWI0Emz2dQMMp6tWa-29" value="Halo" style="text;html=1;strokeColor=none;fillColor=none;align=center;verticalAlign=middle;whiteSpace=wrap;rounded=0;fontSize=15;" vertex="1" parent="1">
          <mxGeometry x="70" y="613" width="100" height="30" as="geometry" />
        </mxCell>
        <mxCell id="6glqWI0Emz2dQMMp6tWa-30" value="3.6.X" style="html=1;shadow=0;dashed=0;shape=mxgraph.bootstrap.rrect;rSize=5;strokeColor=none;strokeWidth=1;fillColor=#F28f3b;fontColor=#FFFFFF;whiteSpace=wrap;align=center;verticalAlign=middle;spacingLeft=0;fontStyle=0;fontSize=10;spacing=5;fontFamily=Verdana;labelBackgroundColor=none;" vertex="1" parent="1">
          <mxGeometry x="468" y="640" width="40" height="16" as="geometry" />
        </mxCell>
        <mxCell id="6glqWI0Emz2dQMMp6tWa-31" value="&lt;br&gt;NOW" style="shape=singleArrow;direction=south;whiteSpace=wrap;html=1;labelBackgroundColor=none;strokeColor=none;fontFamily=Helvetica;fontSize=8;fontColor=#FFFFFF;fillColor=#c8553d;arrowWidth=0.4911463187325298;arrowSize=0.49521072796935545;" vertex="1" parent="1">
          <mxGeometry x="344" y="18" width="37" height="42" as="geometry" />
        </mxCell>
        <mxCell id="6glqWI0Emz2dQMMp6tWa-32" value="2023" style="rounded=1;whiteSpace=wrap;html=1;arcSize=50;strokeColor=none;strokeWidth=1;fillColor=#1CA5B8;fontColor=#ffffff;whiteSpace=wrap;align=left;verticalAlign=middle;spacingLeft=0;fontStyle=1;fontSize=10;spacing=10;labelBackgroundColor=none;fontFamily=Helvetica;" vertex="1" parent="1">
          <mxGeometry x="223" y="70" width="45" height="20" as="geometry" />
        </mxCell>
        <mxCell id="6glqWI0Emz2dQMMp6tWa-33" value="2024" style="rounded=1;whiteSpace=wrap;html=1;arcSize=50;strokeColor=none;strokeWidth=1;fillColor=#FF9742;fontColor=#ffffff;whiteSpace=wrap;align=left;verticalAlign=middle;spacingLeft=0;fontStyle=1;fontSize=10;spacing=10;labelBackgroundColor=none;fontFamily=Helvetica;" vertex="1" parent="1">
          <mxGeometry x="836" y="70" width="45" height="20" as="geometry" />
        </mxCell>
        <mxCell id="6glqWI0Emz2dQMMp6tWa-34" style="edgeStyle=orthogonalEdgeStyle;curved=1;orthogonalLoop=1;jettySize=auto;html=1;entryX=0.499;entryY=0.056;entryDx=0;entryDy=0;entryPerimeter=0;strokeColor=#588b8b;strokeWidth=1;fontFamily=Helvetica;fontSize=8;fontColor=#FFFFFF;endArrow=none;endFill=0;" edge="1" parent="1" source="6glqWI0Emz2dQMMp6tWa-35" target="6glqWI0Emz2dQMMp6tWa-36">
          <mxGeometry relative="1" as="geometry">
            <Array as="points">
              <mxPoint x="589.99" y="629" />
              <mxPoint x="589.99" y="629" />
            </Array>
          </mxGeometry>
        </mxCell>
        <mxCell id="6glqWI0Emz2dQMMp6tWa-35" value="" style="ellipse;shape=doubleEllipse;whiteSpace=wrap;html=1;aspect=fixed;labelBackgroundColor=none;strokeColor=#FFFFFF;fontFamily=Helvetica;fontSize=10;fontColor=#FFFFFF;fillColor=#FF9742;" vertex="1" parent="1">
          <mxGeometry x="584.49" y="617" width="11" height="11" as="geometry" />
        </mxCell>
        <mxCell id="6glqWI0Emz2dQMMp6tWa-36" value="Commissiong" style="rounded=1;whiteSpace=wrap;html=1;labelBackgroundColor=none;strokeColor=none;fontFamily=Helvetica;fontSize=7;fontColor=#FFFFFF;fillColor=#FF9742;" vertex="1" parent="1">
          <mxGeometry x="566.6900000000002" y="640" width="46.63" height="16" as="geometry" />
        </mxCell>
        <mxCell id="6glqWI0Emz2dQMMp6tWa-37" value="Jan" style="rounded=1;whiteSpace=wrap;html=1;labelBackgroundColor=none;strokeColor=none;fontFamily=Helvetica;fontSize=8;fontColor=#000000;fillColor=none;fontStyle=5" vertex="1" parent="1">
          <mxGeometry x="199" y="100" width="52" height="17" as="geometry" />
        </mxCell>
        <mxCell id="6glqWI0Emz2dQMMp6tWa-38" value="Feb" style="rounded=1;whiteSpace=wrap;html=1;labelBackgroundColor=none;strokeColor=none;fontFamily=Helvetica;fontSize=8;fontColor=#000000;fillColor=none;fontStyle=5" vertex="1" parent="1">
          <mxGeometry x="251" y="100" width="58" height="17" as="geometry" />
        </mxCell>
        <mxCell id="6glqWI0Emz2dQMMp6tWa-39" value="Mar" style="rounded=1;whiteSpace=wrap;html=1;labelBackgroundColor=none;strokeColor=none;fontFamily=Helvetica;fontSize=8;fontColor=#000000;fillColor=none;fontStyle=5" vertex="1" parent="1">
          <mxGeometry x="309" y="100" width="54" height="17" as="geometry" />
        </mxCell>
        <mxCell id="6glqWI0Emz2dQMMp6tWa-40" value="Apr" style="rounded=1;whiteSpace=wrap;html=1;labelBackgroundColor=none;strokeColor=none;fontFamily=Helvetica;fontSize=8;fontColor=#000000;fillColor=none;fontStyle=5" vertex="1" parent="1">
          <mxGeometry x="352" y="100" width="52" height="17" as="geometry" />
        </mxCell>
        <mxCell id="6glqWI0Emz2dQMMp6tWa-41" value="May" style="rounded=1;whiteSpace=wrap;html=1;labelBackgroundColor=none;strokeColor=none;fontFamily=Helvetica;fontSize=8;fontColor=#000000;fillColor=none;fontStyle=5" vertex="1" parent="1">
          <mxGeometry x="404" y="100" width="58" height="17" as="geometry" />
        </mxCell>
        <mxCell id="6glqWI0Emz2dQMMp6tWa-42" value="Jun" style="rounded=1;whiteSpace=wrap;html=1;labelBackgroundColor=none;strokeColor=none;fontFamily=Helvetica;fontSize=8;fontColor=#000000;fillColor=none;fontStyle=5" vertex="1" parent="1">
          <mxGeometry x="462" y="100" width="54" height="17" as="geometry" />
        </mxCell>
        <mxCell id="6glqWI0Emz2dQMMp6tWa-43" value="Jul" style="rounded=1;whiteSpace=wrap;html=1;labelBackgroundColor=none;strokeColor=none;fontFamily=Helvetica;fontSize=8;fontColor=#000000;fillColor=none;fontStyle=5" vertex="1" parent="1">
          <mxGeometry x="509" y="100" width="52" height="17" as="geometry" />
        </mxCell>
        <mxCell id="6glqWI0Emz2dQMMp6tWa-44" value="Aug" style="rounded=1;whiteSpace=wrap;html=1;labelBackgroundColor=none;strokeColor=none;fontFamily=Helvetica;fontSize=8;fontColor=#000000;fillColor=none;fontStyle=5" vertex="1" parent="1">
          <mxGeometry x="561" y="100" width="58" height="17" as="geometry" />
        </mxCell>
        <mxCell id="6glqWI0Emz2dQMMp6tWa-45" value="Sep" style="rounded=1;whiteSpace=wrap;html=1;labelBackgroundColor=none;strokeColor=none;fontFamily=Helvetica;fontSize=8;fontColor=#000000;fillColor=none;fontStyle=5" vertex="1" parent="1">
          <mxGeometry x="614" y="100" width="54" height="17" as="geometry" />
        </mxCell>
        <mxCell id="6glqWI0Emz2dQMMp6tWa-46" value="Dec" style="rounded=1;whiteSpace=wrap;html=1;labelBackgroundColor=none;strokeColor=none;fontFamily=Helvetica;fontSize=8;fontColor=#000000;fillColor=none;fontStyle=5" vertex="1" parent="1">
          <mxGeometry x="771" y="100" width="54" height="17" as="geometry" />
        </mxCell>
        <mxCell id="6glqWI0Emz2dQMMp6tWa-47" value="Oct" style="rounded=1;whiteSpace=wrap;html=1;labelBackgroundColor=none;strokeColor=none;fontFamily=Helvetica;fontSize=8;fontColor=#000000;fillColor=none;fontStyle=5" vertex="1" parent="1">
          <mxGeometry x="661" y="100" width="52" height="17" as="geometry" />
        </mxCell>
        <mxCell id="6glqWI0Emz2dQMMp6tWa-48" value="Nov" style="rounded=1;whiteSpace=wrap;html=1;labelBackgroundColor=none;strokeColor=none;fontFamily=Helvetica;fontSize=8;fontColor=#000000;fillColor=none;fontStyle=5" vertex="1" parent="1">
          <mxGeometry x="713" y="100" width="58" height="17" as="geometry" />
        </mxCell>
        <mxCell id="6glqWI0Emz2dQMMp6tWa-49" value="Jan" style="rounded=1;whiteSpace=wrap;html=1;labelBackgroundColor=none;strokeColor=none;fontFamily=Helvetica;fontSize=8;fontColor=#000000;fillColor=none;fontStyle=5" vertex="1" parent="1">
          <mxGeometry x="813" y="100" width="52" height="17" as="geometry" />
        </mxCell>
        <mxCell id="6glqWI0Emz2dQMMp6tWa-50" value="Feb" style="rounded=1;whiteSpace=wrap;html=1;labelBackgroundColor=none;strokeColor=none;fontFamily=Helvetica;fontSize=8;fontColor=#000000;fillColor=none;fontStyle=5" vertex="1" parent="1">
          <mxGeometry x="865" y="100" width="58" height="17" as="geometry" />
        </mxCell>
        <mxCell id="6glqWI0Emz2dQMMp6tWa-51" value="Mar" style="rounded=1;whiteSpace=wrap;html=1;labelBackgroundColor=none;strokeColor=none;fontFamily=Helvetica;fontSize=8;fontColor=#000000;fillColor=none;fontStyle=5" vertex="1" parent="1">
          <mxGeometry x="923" y="100" width="54" height="17" as="geometry" />
        </mxCell>
        <mxCell id="6glqWI0Emz2dQMMp6tWa-52" value="Apr" style="rounded=1;whiteSpace=wrap;html=1;labelBackgroundColor=none;strokeColor=none;fontFamily=Helvetica;fontSize=8;fontColor=#000000;fillColor=none;fontStyle=5" vertex="1" parent="1">
          <mxGeometry x="967" y="100" width="52" height="17" as="geometry" />
        </mxCell>
        <mxCell id="6glqWI0Emz2dQMMp6tWa-53" value="May" style="rounded=1;whiteSpace=wrap;html=1;labelBackgroundColor=none;strokeColor=none;fontFamily=Helvetica;fontSize=8;fontColor=#000000;fillColor=none;fontStyle=5" vertex="1" parent="1">
          <mxGeometry x="1019" y="100" width="58" height="17" as="geometry" />
        </mxCell>
        <mxCell id="6glqWI0Emz2dQMMp6tWa-54" value="Jun" style="rounded=1;whiteSpace=wrap;html=1;labelBackgroundColor=none;strokeColor=none;fontFamily=Helvetica;fontSize=8;fontColor=#000000;fillColor=none;fontStyle=5" vertex="1" parent="1">
          <mxGeometry x="1077" y="100" width="54" height="17" as="geometry" />
        </mxCell>
        <mxCell id="6glqWI0Emz2dQMMp6tWa-55" value="Verification" style="html=1;shape=mxgraph.infographic.ribbonSimple;notch1=10.29;notch2=13.57;fillColor=#588b8b;strokeColor=none;align=center;verticalAlign=middle;fontColor=#ffffff;fontSize=9;fontStyle=0;rounded=0;" vertex="1" parent="1">
          <mxGeometry x="510" y="614" width="70" height="17" as="geometry" />
        </mxCell>
        <mxCell id="6glqWI0Emz2dQMMp6tWa-56" value="G1" style="rounded=1;whiteSpace=wrap;html=1;arcSize=50;strokeColor=none;strokeWidth=1;fillColor=#c8553d;fontColor=#FFFFFF;whiteSpace=wrap;align=center;verticalAlign=middle;spacingLeft=0;fontStyle=1;fontSize=9;spacing=10;fontFamily=Verdana;" vertex="1" parent="1">
          <mxGeometry x="364.5" y="525" width="27.5" height="17" as="geometry" />
        </mxCell>
        <mxCell id="6glqWI0Emz2dQMMp6tWa-57" value="G2" style="rounded=1;whiteSpace=wrap;html=1;arcSize=50;strokeColor=none;strokeWidth=1;fillColor=#c8553d;fontColor=#FFFFFF;whiteSpace=wrap;align=center;verticalAlign=middle;spacingLeft=0;fontStyle=1;fontSize=9;spacing=10;fontFamily=Verdana;" vertex="1" parent="1">
          <mxGeometry x="517.25" y="525" width="27.5" height="17" as="geometry" />
        </mxCell>
        <mxCell id="6glqWI0Emz2dQMMp6tWa-58" value="G3" style="rounded=1;whiteSpace=wrap;html=1;arcSize=50;strokeColor=none;strokeWidth=1;fillColor=#c8553d;fontColor=#FFFFFF;whiteSpace=wrap;align=center;verticalAlign=middle;spacingLeft=0;fontStyle=1;fontSize=9;spacing=10;fontFamily=Verdana;" vertex="1" parent="1">
          <mxGeometry x="819" y="523.9" width="27.5" height="17" as="geometry" />
        </mxCell>
        <mxCell id="6glqWI0Emz2dQMMp6tWa-59" value="G6" style="rounded=1;whiteSpace=wrap;html=1;arcSize=50;strokeColor=none;strokeWidth=1;fillColor=#c8553d;fontColor=#FFFFFF;whiteSpace=wrap;align=center;verticalAlign=middle;spacingLeft=0;fontStyle=1;fontSize=9;spacing=10;fontFamily=Verdana;" vertex="1" parent="1">
          <mxGeometry x="295" y="289" width="29" height="17" as="geometry" />
        </mxCell>
        <mxCell id="6glqWI0Emz2dQMMp6tWa-60" value="3.6.8" style="html=1;shadow=0;dashed=0;shape=mxgraph.bootstrap.rrect;rSize=5;strokeColor=none;strokeWidth=1;fillColor=#F28f3b;fontColor=#FFFFFF;whiteSpace=wrap;align=center;verticalAlign=middle;spacingLeft=0;fontStyle=0;fontSize=10;spacing=5;fontFamily=Verdana;labelBackgroundColor=none;" vertex="1" parent="1">
          <mxGeometry x="40" y="717" width="40" height="20" as="geometry" />
        </mxCell>
        <mxCell id="6glqWI0Emz2dQMMp6tWa-61" value="3.7.0" style="html=1;shadow=0;dashed=0;shape=mxgraph.bootstrap.rrect;rSize=5;strokeColor=none;strokeWidth=1;fillColor=#F28f3b;fontColor=#FFFFFF;whiteSpace=wrap;align=center;verticalAlign=middle;spacingLeft=0;fontStyle=0;fontSize=10;spacing=5;fontFamily=Verdana;labelBackgroundColor=none;" vertex="1" parent="1">
          <mxGeometry x="292" y="717" width="40" height="20" as="geometry" />
        </mxCell>
        <mxCell id="6glqWI0Emz2dQMMp6tWa-62" value="&lt;ul&gt;&lt;li&gt;IMEC HRS Software Integration&amp;nbsp;&lt;/li&gt;&lt;li&gt;NKB933 Requirements&lt;/li&gt;&lt;li&gt;NKB930 Change Pump EUV3050,7k Booster&lt;/li&gt;&lt;li&gt;NKB943(H2DX3) Requirements&lt;/li&gt;&lt;/ul&gt;" style="text;strokeColor=none;fillColor=none;html=1;whiteSpace=wrap;verticalAlign=middle;overflow=hidden;fontSize=8;fontFamily=Helvetica;fontColor=#000000;labelPosition=center;verticalLabelPosition=middle;align=left;" vertex="1" parent="1">
          <mxGeometry x="11" y="729" width="211" height="51" as="geometry" />
        </mxCell>
        <mxCell id="6glqWI0Emz2dQMMp6tWa-63" value="&lt;ul&gt;&lt;li&gt;All Variants&amp;nbsp;&lt;/li&gt;&lt;/ul&gt;" style="text;strokeColor=none;fillColor=none;html=1;whiteSpace=wrap;verticalAlign=middle;overflow=hidden;fontSize=8;fontFamily=Helvetica;fontColor=#000000;labelPosition=center;verticalLabelPosition=middle;align=left;" vertex="1" parent="1">
          <mxGeometry x="270" y="730" width="211" height="40" as="geometry" />
        </mxCell>
        <mxCell id="6glqWI0Emz2dQMMp6tWa-64" value="Development" style="html=1;shape=mxgraph.infographic.ribbonSimple;notch1=10.29;notch2=13.57;fillColor=#588b8b;strokeColor=none;align=center;verticalAlign=middle;fontColor=#ffffff;fontSize=9;fontStyle=0;rounded=0;" vertex="1" parent="1">
          <mxGeometry x="329" y="614" width="152" height="17" as="geometry" />
        </mxCell>
        <mxCell id="6glqWI0Emz2dQMMp6tWa-65" value="G5-TDB" style="rounded=1;whiteSpace=wrap;html=1;arcSize=50;strokeColor=none;strokeWidth=1;fillColor=#c8553d;fontColor=#FFFFFF;whiteSpace=wrap;align=center;verticalAlign=middle;spacingLeft=0;fontStyle=1;fontSize=9;spacing=10;fontFamily=Verdana;" vertex="1" parent="1">
          <mxGeometry x="688" y="373" width="57" height="17" as="geometry" />
        </mxCell>
        <mxCell id="6glqWI0Emz2dQMMp6tWa-66" value="G3" style="rounded=1;whiteSpace=wrap;html=1;arcSize=50;strokeColor=none;strokeWidth=1;fillColor=#c8553d;fontColor=#FFFFFF;whiteSpace=wrap;align=center;verticalAlign=middle;spacingLeft=0;fontStyle=1;fontSize=9;spacing=10;fontFamily=Verdana;" vertex="1" parent="1">
          <mxGeometry x="455" y="445.61" width="29" height="17" as="geometry" />
        </mxCell>
        <mxCell id="6glqWI0Emz2dQMMp6tWa-67" value="G5" style="rounded=1;whiteSpace=wrap;html=1;arcSize=50;strokeColor=none;strokeWidth=1;fillColor=#c8553d;fontColor=#FFFFFF;whiteSpace=wrap;align=center;verticalAlign=middle;spacingLeft=0;fontStyle=1;fontSize=9;spacing=10;fontFamily=Verdana;" vertex="1" parent="1">
          <mxGeometry x="760" y="445.61" width="29" height="17" as="geometry" />
        </mxCell>
        <mxCell id="6glqWI0Emz2dQMMp6tWa-68" value="Knowledge Gap" style="html=1;shadow=0;dashed=0;shape=mxgraph.bootstrap.rrect;rSize=5;strokeColor=none;strokeWidth=1;fillColor=#F28f3b;fontColor=#FFFFFF;whiteSpace=wrap;align=center;verticalAlign=middle;spacingLeft=0;fontStyle=0;fontSize=10;spacing=5;fontFamily=Verdana;labelBackgroundColor=none;" vertex="1" parent="1">
          <mxGeometry x="244" y="540.9" width="113" height="17" as="geometry" />
        </mxCell>
        <mxCell id="6glqWI0Emz2dQMMp6tWa-69" value="" style="endArrow=none;html=1;strokeColor=#588b8b;strokeWidth=2;movable=1;resizable=1;rotatable=1;deletable=1;editable=1;connectable=1;" edge="1" parent="1" target="6glqWI0Emz2dQMMp6tWa-70">
          <mxGeometry width="50" height="50" relative="1" as="geometry">
            <mxPoint x="40" y="187" as="sourcePoint" />
            <mxPoint x="1120" y="187" as="targetPoint" />
          </mxGeometry>
        </mxCell>
        <mxCell id="6glqWI0Emz2dQMMp6tWa-70" value="3.7.0" style="html=1;shadow=0;dashed=0;shape=mxgraph.bootstrap.rrect;rSize=5;strokeColor=none;strokeWidth=1;fillColor=#F28f3b;fontColor=#FFFFFF;whiteSpace=wrap;align=center;verticalAlign=middle;spacingLeft=0;fontStyle=0;fontSize=10;spacing=5;fontFamily=Verdana;labelBackgroundColor=none;" vertex="1" parent="1">
          <mxGeometry x="622" y="176.5" width="40" height="20" as="geometry" />
        </mxCell>
        <mxCell id="6glqWI0Emz2dQMMp6tWa-71" value="3.6.8" style="html=1;shadow=0;dashed=0;shape=mxgraph.bootstrap.rrect;rSize=5;strokeColor=none;strokeWidth=1;fillColor=#F28f3b;fontColor=#FFFFFF;whiteSpace=wrap;align=center;verticalAlign=middle;spacingLeft=0;fontStyle=0;fontSize=10;spacing=5;fontFamily=Verdana;labelBackgroundColor=none;" vertex="1" parent="1">
          <mxGeometry x="471" y="175" width="40" height="20" as="geometry" />
        </mxCell>
        <mxCell id="6glqWI0Emz2dQMMp6tWa-72" value="Development" style="html=1;shape=mxgraph.infographic.ribbonSimple;notch1=10.29;notch2=13.57;fillColor=#588b8b;strokeColor=none;align=center;verticalAlign=middle;fontColor=#ffffff;fontSize=9;fontStyle=0;rounded=0;" vertex="1" parent="1">
          <mxGeometry x="387" y="178" width="84" height="17" as="geometry" />
        </mxCell>
        <mxCell id="6glqWI0Emz2dQMMp6tWa-73" value="4.2.3" style="html=1;shadow=0;dashed=0;shape=mxgraph.bootstrap.rrect;rSize=5;strokeColor=none;strokeWidth=1;fillColor=#F28f3b;fontColor=#FFFFFF;whiteSpace=wrap;align=center;verticalAlign=middle;spacingLeft=0;fontStyle=0;fontSize=10;spacing=5;fontFamily=Verdana;labelBackgroundColor=none;" vertex="1" parent="1">
          <mxGeometry x="842" y="717" width="37" height="19" as="geometry" />
        </mxCell>
        <mxCell id="6glqWI0Emz2dQMMp6tWa-74" value="&lt;ul&gt;&lt;li&gt;TSMC R&amp;amp;D (HRS + H2D-TX2)&lt;/li&gt;&lt;/ul&gt;" style="text;strokeColor=none;fillColor=none;html=1;whiteSpace=wrap;verticalAlign=middle;overflow=hidden;fontSize=8;fontFamily=Helvetica;fontColor=#000000;labelPosition=center;verticalLabelPosition=middle;align=left;" vertex="1" parent="1">
          <mxGeometry x="819" y="729" width="241" height="40" as="geometry" />
        </mxCell>
        <mxCell id="6glqWI0Emz2dQMMp6tWa-75" value="" style="endArrow=none;html=1;strokeColor=#588b8b;strokeWidth=2;" edge="1" parent="1" source="6glqWI0Emz2dQMMp6tWa-79" target="6glqWI0Emz2dQMMp6tWa-76">
          <mxGeometry width="50" height="50" relative="1" as="geometry">
            <mxPoint x="40" y="363" as="sourcePoint" />
            <mxPoint x="1120" y="363" as="targetPoint" />
          </mxGeometry>
        </mxCell>
        <mxCell id="6glqWI0Emz2dQMMp6tWa-76" value="4.2.3 - R&amp;amp;D" style="html=1;shadow=0;dashed=0;shape=mxgraph.bootstrap.rrect;rSize=5;strokeColor=none;strokeWidth=1;fillColor=#F28f3b;fontColor=#FFFFFF;whiteSpace=wrap;align=center;verticalAlign=middle;spacingLeft=0;fontStyle=0;fontSize=10;spacing=5;fontFamily=Verdana;labelBackgroundColor=none;" vertex="1" parent="1">
          <mxGeometry x="662" y="351" width="77" height="20" as="geometry" />
        </mxCell>
        <mxCell id="6glqWI0Emz2dQMMp6tWa-77" value="" style="endArrow=none;html=1;strokeColor=#588b8b;strokeWidth=2;" edge="1" parent="1" source="6glqWI0Emz2dQMMp6tWa-76">
          <mxGeometry width="50" height="50" relative="1" as="geometry">
            <mxPoint x="739" y="361" as="sourcePoint" />
            <mxPoint x="771" y="361" as="targetPoint" />
          </mxGeometry>
        </mxCell>
        <mxCell id="6glqWI0Emz2dQMMp6tWa-78" value="" style="endArrow=none;html=1;strokeColor=#588b8b;strokeWidth=2;" edge="1" parent="1" target="6glqWI0Emz2dQMMp6tWa-79">
          <mxGeometry width="50" height="50" relative="1" as="geometry">
            <mxPoint x="40" y="363" as="sourcePoint" />
            <mxPoint x="662" y="361" as="targetPoint" />
          </mxGeometry>
        </mxCell>
        <mxCell id="6glqWI0Emz2dQMMp6tWa-79" value="Development" style="html=1;shape=mxgraph.infographic.ribbonSimple;notch1=10.29;notch2=13.57;fillColor=#588b8b;strokeColor=none;align=center;verticalAlign=middle;fontColor=#ffffff;fontSize=9;fontStyle=0;rounded=0;" vertex="1" parent="1">
          <mxGeometry x="560" y="353" width="102" height="17" as="geometry" />
        </mxCell>
        <mxCell id="6glqWI0Emz2dQMMp6tWa-80" value="4.2.3 - R&amp;amp;D" style="html=1;shadow=0;dashed=0;shape=mxgraph.bootstrap.rrect;rSize=5;strokeColor=none;strokeWidth=1;fillColor=#F28f3b;fontColor=#FFFFFF;whiteSpace=wrap;align=center;verticalAlign=middle;spacingLeft=0;fontStyle=0;fontSize=10;spacing=5;fontFamily=Verdana;labelBackgroundColor=none;" vertex="1" parent="1">
          <mxGeometry x="769.5" y="350" width="77" height="20" as="geometry" />
        </mxCell>
      </root>
    </mxGraphModel>
  </diagram>
</mxfile>
